<?xml version="1.0" encoding="utf-8"?>
<!-- Generator: Adobe Illustrator 28.2.0, SVG Export Plug-In . SVG Version: 6.00 Build 0)  -->
<svg version="1.1" id="Layer_1" xmlns="http://www.w3.org/2000/svg" xmlns:xlink="http://www.w3.org/1999/xlink" x="0px" y="0px"
	 viewBox="0 0 1024 1024" style="enable-background:new 0 0 1024 1024;" xml:space="preserve">
<style type="text/css">
	.st0{fill:#90D6E7;}
	.st1{fill:#50B848;}
	.st2{fill:#FED00A;}
	.st3{fill:#824738;}
</style>
<g>
	<path class="st0" d="M462.6,791.8c-9.5-4.3-19.1-8.1-28.4-12.9c-9.3-4.8-18.4-9.7-27.2-15.4c-1.3-0.8-2.4-1.7-4-1.8
		c-10.9-6.4-21.2-13.8-30.1-22.9c-2.1-3.4-5.5-5.7-8.4-8.4c-29.1-27-51.9-58.7-69.2-94.3c-13.4-27.8-21.5-57-24.9-87.7
		c-2-18.3-2.6-36.6-1.5-54.8c2.3-39.6,10.2-78,27.5-114c1.2-2.4,1.6-3.9-1.3-5.6c-30.1-17.6-49.3-43.4-58-77.1
		c-0.1-0.3-0.3-0.6-0.4-0.9c-0.9-1.3-1.4-2.6-1.5-4.2c-1-15.7-2.1-31.4,0.2-47.1c1.2-8.1,4.2-15.6,7.3-23.2c0.6-1.4,1.6-2.5,2.8-3.4
		c12.1-24.3,28.2-46.3,42.7-69.2c18-28.6,36.4-56.9,54.5-85.4c2-3.1,3.4-3.9,6.8-1.5c40.3,28.3,75.4,61.7,100.9,104.3
		c15,25,24.8,51.7,26.3,81.2c1.4,27.3-0.9,53.8-14.2,78.3c-3.6,6.6-7.6,12.9-12.4,18.7c-1.5,1.9-1.4,2.9,0.2,4.6
		c8.3,8.1,16.6,16.4,24.9,24.5c-0.2,3.7-2.4,6.5-4,9.6c-11.4,21.8-18.5,44.9-21.7,69.3c-4.7,36.7,0.4,72,14.4,106.2
		c10.3,25.2,25.1,47.5,44.5,66.4c35.2,34.2,77.1,54.7,126.3,59.4c41.6,4,80.8-4.1,117.8-23.7c2.3-1.2,4.6-3.6,7.8-2.1
		c12.9,2.1,25.9,4.2,38.8,6.4c28.3,4.8,56.5,9.8,84.8,14.7c17.8,3.1,35.6,6.1,53.4,9.2c2.8,0.5,3.9,1.1,2.1,4.4
		c-15,27.9-32.2,54.3-51.9,79.2c-2.4,3.1-4.5,3.5-8.1,2.4c-38.4-11.4-76.8-22.6-115.2-33.9c-2.6-0.8-4.5-0.9-6.8,1
		c-23.7,20.2-50.5,35-79.3,46.4c-25.6,10.1-52.1,16.5-79.6,19.4c-33.9,3.6-67.3,1.3-100.4-6.2c-5.7-1.3-5.7-1.3-5.7,4.4
		c0,50.1,0,100.3,0,150.4c0,1.9,0.6,4-0.6,5.8c-2.7-2.3-1.9-5.5-1.9-8.4c-0.1-46.9,0-93.7,0-140.6c0-2.2-0.1-4.3,0-6.5
		c0.3-4-1.4-6.2-5.3-7.1c-5.7-1.4-11.1-3.4-16.6-5.2C466.1,794.3,464.1,793.6,462.6,791.8z"/>
	<path class="st1" d="M760.5,659c-9,4.2-17.9,8.9-27,12.7c-29.7,12.3-60.8,17.5-92.8,15.2c-47.7-3.5-89.6-21.4-125.3-53.4
		c-37-33.2-58.9-74.8-66.4-123.7c-7.2-47.1,1.5-91.7,24.7-133.4c0.5-0.9,1.2-1.6,1.8-2.4c0.2,0.1,0.4,0.2,0.5,0.3
		c2.8,1.9,5.2,4.1,7.6,6.5c14.3,14.4,28.5,28.9,43.1,43.1c77.3,75.2,152.7,152.3,229.2,228.3c1.8,1.8,4.3,3.3,4.8,6.2
		C760.5,658.5,760.5,658.7,760.5,659z"/>
	<path class="st2" d="M760.6,658.2c-1.2-1.1-2.5-2.2-3.7-3.3C686,584,615.1,513.1,544.1,442.3c-21.4-21.4-43-42.7-64.5-64.1
		c-1.3-1.3-2.5-2.7-3.7-4c35.5,12.2,70.5,25.8,104.8,41.2c69.8,31.4,134.8,70.8,196.9,115.2c19.6,14,39.6,27.6,59.4,41.3
		c2,1.4,3.7,2.2,2,5.3c-18.5,34-44.1,61-77.5,80.7C761.2,658.1,760.9,658.1,760.6,658.2z"/>
	<path class="st3" d="M372.9,738.9c6.9,5.2,14,10.3,20.8,15.7c3.1,2.4,6.9,3.8,9.3,7.2c0,33.5-0.1,67-0.1,100.4
		c0,29.3-0.1,58.6,0.1,88c0,3.8-0.5,5.4-4.8,4.2c-6.9-1.8-14-3.1-21-4.4c-3.1-0.6-4.3-1.8-4.3-5.2
		C372.9,876.2,372.9,807.6,372.9,738.9z"/>
	<path class="st3" d="M462.6,791.8c9.1,2.7,18.1,5.5,27.2,8.2c1.6,0.5,2.1,1.4,2.1,2.9c0,1.3,0,2.7,0,4c0,52,0.1,104,0.1,155.9
		c-8.8,0.7-17.6,0-26.4-0.3c-2.3-0.1-3.4-1-3.1-3.3c0-0.2,0-0.3,0-0.5C462.6,903,462.6,847.4,462.6,791.8z"/>
	<path class="st3" d="M245.6,218.4c-11.5,22.9-10.1,47.4-8.9,71.8c0.1,2,0,4,0,6c-21.5-10-42.9-19.9-64.4-29.9
		c0.1-0.3,0.2-0.6,0.2-0.9c18.8-2.5,37.6-5,57.6-7.6c-15.5-12.6-30.2-24.5-46-37.3C205.6,219.7,225.6,219,245.6,218.4z"/>
	<path class="st3" d="M321.1,207.2c30.3,0.1,49.1,26.9,40.5,51.7c-1.4,4-3.2,5.1-6.7,2.5c-0.1-0.1-0.3-0.1-0.4-0.2
		c-7.7-3.8-7.7-3.8-6.2-11.9c1.7-9.7-4.2-20.4-13.7-24.9c-9.7-4.5-21.7-2-28.2,6.8c-2.9,3.9-4.9,3.9-8.7,1.8
		c-9-4.9-9.2-4.7-2.4-12.5C303,211.6,313.2,207.4,321.1,207.2z"/>
</g>
</svg>
